<svg width="322" height="322" viewBox="0 0 322 322" fill="none" xmlns="http://www.w3.org/2000/svg">
<path d="M181.751 83.3981H156.453C154.675 83.3981 153.233 84.8397 153.233 86.6181V132.228C153.233 134.007 154.675 135.448 156.453 135.448H181.751C183.529 135.448 184.971 134.007 184.971 132.228V86.6181C184.971 84.8397 183.529 83.3981 181.751 83.3981Z" fill="#A7B7FA"/>
<path d="M143.454 127.512H116.886C115.108 127.512 113.666 128.954 113.666 130.732V157.3C113.666 159.078 115.108 160.52 116.886 160.52H143.454C145.232 160.52 146.674 159.078 146.674 157.3V130.732C146.674 128.954 145.232 127.512 143.454 127.512Z" fill="#7B93F8"/>
<path d="M219.836 127.831H193.269C191.49 127.831 190.049 129.273 190.049 131.051V157.619C190.049 159.397 191.49 160.839 193.269 160.839H219.836C221.615 160.839 223.056 159.397 223.056 157.619V131.051C223.056 129.273 221.615 127.831 219.836 127.831Z" fill="#7B93F8"/>
<path d="M219.836 169.725H193.269C191.49 169.725 190.049 171.167 190.049 172.945V198.243C190.049 200.022 191.49 201.463 193.269 201.463H219.836C221.615 201.463 223.056 200.022 223.056 198.243V172.945C223.056 171.167 221.615 169.725 219.836 169.725Z" fill="#4F6FF5"/>
<path d="M143.454 169.694H116.886C115.108 169.694 113.666 171.136 113.666 172.914V198.212C113.666 199.99 115.108 201.432 116.886 201.432H143.454C145.232 201.432 146.674 199.99 146.674 198.212V172.914C146.674 171.136 145.232 169.694 143.454 169.694Z" fill="#4F6FF5"/>
<path d="M105.616 185.472H78.8899C77.1116 185.472 75.6699 186.914 75.6699 188.692V255.346C75.6699 257.124 77.1116 258.566 78.8899 258.566H105.616C107.394 258.566 108.836 257.124 108.836 255.346V188.692C108.836 186.914 107.394 185.472 105.616 185.472Z" fill="#234BF3"/>
<path d="M257.922 185.472H231.196C229.417 185.472 227.976 186.914 227.976 188.692V255.346C227.976 257.124 229.417 258.566 231.196 258.566H257.922C259.7 258.566 261.142 257.124 261.142 255.346V188.692C261.142 186.914 259.7 185.472 257.922 185.472Z" fill="#234BF3"/>
<path d="M75.375 300.104L85.8233 276.662H91.1813L101.663 300.104H95.9701L87.3972 279.408H89.5404L80.934 300.104H75.375ZM80.5991 295.081L82.0391 290.962H94.0948L95.5683 295.081H80.5991ZM112.27 300.372C110.328 300.372 108.597 299.981 107.079 299.2C105.561 298.396 104.367 297.291 103.496 295.884C102.648 294.478 102.224 292.882 102.224 291.096C102.224 289.287 102.648 287.691 103.496 286.307C104.367 284.9 105.561 283.807 107.079 283.025C108.597 282.221 110.328 281.82 112.27 281.82C114.168 281.82 115.82 282.221 117.226 283.025C118.633 283.807 119.671 284.934 120.341 286.407L116.289 288.584C115.82 287.736 115.228 287.111 114.514 286.709C113.821 286.307 113.063 286.106 112.237 286.106C111.343 286.106 110.54 286.307 109.825 286.709C109.111 287.111 108.542 287.68 108.118 288.417C107.716 289.153 107.515 290.046 107.515 291.096C107.515 292.145 107.716 293.038 108.118 293.775C108.542 294.511 109.111 295.081 109.825 295.483C110.54 295.884 111.343 296.085 112.237 296.085C113.063 296.085 113.821 295.896 114.514 295.516C115.228 295.114 115.82 294.478 116.289 293.607L120.341 295.817C119.671 297.269 118.633 298.396 117.226 299.2C115.82 299.981 114.168 300.372 112.27 300.372ZM131.826 300.372C129.884 300.372 128.154 299.981 126.636 299.2C125.118 298.396 123.923 297.291 123.053 295.884C122.204 294.478 121.78 292.882 121.78 291.096C121.78 289.287 122.204 287.691 123.053 286.307C123.923 284.9 125.118 283.807 126.636 283.025C128.154 282.221 129.884 281.82 131.826 281.82C133.724 281.82 135.376 282.221 136.783 283.025C138.189 283.807 139.227 284.934 139.897 286.407L135.845 288.584C135.376 287.736 134.785 287.111 134.07 286.709C133.378 286.307 132.619 286.106 131.793 286.106C130.9 286.106 130.096 286.307 129.382 286.709C128.667 287.111 128.098 287.68 127.674 288.417C127.272 289.153 127.071 290.046 127.071 291.096C127.071 292.145 127.272 293.038 127.674 293.775C128.098 294.511 128.667 295.081 129.382 295.483C130.096 295.884 130.9 296.085 131.793 296.085C132.619 296.085 133.378 295.896 134.07 295.516C134.785 295.114 135.376 294.478 135.845 293.607L139.897 295.817C139.227 297.269 138.189 298.396 136.783 299.2C135.376 299.981 133.724 300.372 131.826 300.372ZM151.249 300.372C149.329 300.372 147.621 299.97 146.125 299.166C144.652 298.363 143.48 297.269 142.609 295.884C141.761 294.478 141.336 292.882 141.336 291.096C141.336 289.287 141.761 287.691 142.609 286.307C143.48 284.9 144.652 283.807 146.125 283.025C147.621 282.221 149.329 281.82 151.249 281.82C153.147 281.82 154.843 282.221 156.339 283.025C157.835 283.807 159.007 284.889 159.855 286.273C160.704 287.658 161.128 289.265 161.128 291.096C161.128 292.882 160.704 294.478 159.855 295.884C159.007 297.269 157.835 298.363 156.339 299.166C154.843 299.97 153.147 300.372 151.249 300.372ZM151.249 296.085C152.12 296.085 152.901 295.884 153.593 295.483C154.285 295.081 154.832 294.511 155.234 293.775C155.636 293.016 155.837 292.123 155.837 291.096C155.837 290.046 155.636 289.153 155.234 288.417C154.832 287.68 154.285 287.111 153.593 286.709C152.901 286.307 152.12 286.106 151.249 286.106C150.378 286.106 149.597 286.307 148.905 286.709C148.213 287.111 147.655 287.68 147.23 288.417C146.828 289.153 146.627 290.046 146.627 291.096C146.627 292.123 146.828 293.016 147.23 293.775C147.655 294.511 148.213 295.081 148.905 295.483C149.597 295.884 150.378 296.085 151.249 296.085ZM164.62 300.104V282.087H169.61V287.178L168.906 285.704C169.442 284.432 170.302 283.472 171.485 282.824C172.668 282.154 174.108 281.82 175.805 281.82V286.642C175.582 286.62 175.381 286.608 175.202 286.608C175.023 286.586 174.834 286.575 174.633 286.575C173.204 286.575 172.043 286.988 171.15 287.814C170.279 288.618 169.844 289.879 169.844 291.598V300.104H164.62ZM186.516 300.372C184.819 300.372 183.29 299.992 181.928 299.233C180.566 298.452 179.483 297.369 178.68 295.985C177.899 294.601 177.508 292.971 177.508 291.096C177.508 289.198 177.899 287.557 178.68 286.173C179.483 284.789 180.566 283.717 181.928 282.958C183.29 282.199 184.819 281.82 186.516 281.82C188.034 281.82 189.362 282.154 190.501 282.824C191.64 283.494 192.521 284.51 193.146 285.872C193.772 287.233 194.084 288.975 194.084 291.096C194.084 293.194 193.783 294.936 193.18 296.32C192.577 297.682 191.707 298.697 190.568 299.367C189.452 300.037 188.101 300.372 186.516 300.372ZM187.42 296.085C188.269 296.085 189.039 295.884 189.731 295.483C190.423 295.081 190.97 294.511 191.372 293.775C191.796 293.016 192.008 292.123 192.008 291.096C192.008 290.046 191.796 289.153 191.372 288.417C190.97 287.68 190.423 287.111 189.731 286.709C189.039 286.307 188.269 286.106 187.42 286.106C186.549 286.106 185.768 286.307 185.076 286.709C184.384 287.111 183.826 287.68 183.401 288.417C183 289.153 182.799 290.046 182.799 291.096C182.799 292.123 183 293.016 183.401 293.775C183.826 294.511 184.384 295.081 185.076 295.483C185.768 295.884 186.549 296.085 187.42 296.085ZM192.142 300.104V296.42L192.242 291.062L191.907 285.738V275.256H197.132V300.104H192.142ZM210.54 300.372C208.62 300.372 206.912 299.97 205.416 299.166C203.943 298.363 202.77 297.269 201.9 295.884C201.052 294.478 200.627 292.882 200.627 291.096C200.627 289.287 201.052 287.691 201.9 286.307C202.77 284.9 203.943 283.807 205.416 283.025C206.912 282.221 208.62 281.82 210.54 281.82C212.438 281.82 214.134 282.221 215.63 283.025C217.126 283.807 218.298 284.889 219.146 286.273C219.995 287.658 220.419 289.265 220.419 291.096C220.419 292.882 219.995 294.478 219.146 295.884C218.298 297.269 217.126 298.363 215.63 299.166C214.134 299.97 212.438 300.372 210.54 300.372ZM210.54 296.085C211.41 296.085 212.192 295.884 212.884 295.483C213.576 295.081 214.123 294.511 214.525 293.775C214.927 293.016 215.128 292.123 215.128 291.096C215.128 290.046 214.927 289.153 214.525 288.417C214.123 287.68 213.576 287.111 212.884 286.709C212.192 286.307 211.41 286.106 210.54 286.106C209.669 286.106 208.888 286.307 208.195 286.709C207.504 287.111 206.945 287.68 206.521 288.417C206.119 289.153 205.918 290.046 205.918 291.096C205.918 292.123 206.119 293.016 206.521 293.775C206.945 294.511 207.504 295.081 208.195 295.483C208.888 295.884 209.669 296.085 210.54 296.085ZM225.69 300.372C224.797 300.372 224.027 300.07 223.379 299.468C222.754 298.843 222.442 298.05 222.442 297.09C222.442 296.13 222.754 295.36 223.379 294.779C224.027 294.177 224.797 293.875 225.69 293.875C226.606 293.875 227.376 294.177 228.001 294.779C228.626 295.36 228.938 296.13 228.938 297.09C228.938 298.05 228.626 298.843 228.001 299.468C227.376 300.07 226.606 300.372 225.69 300.372ZM243.857 300.104V296.588L243.522 295.817V289.522C243.522 288.405 243.176 287.535 242.484 286.91C241.814 286.285 240.776 285.972 239.37 285.972C238.409 285.972 237.461 286.128 236.523 286.441C235.608 286.731 234.826 287.133 234.179 287.646L232.304 283.996C233.286 283.304 234.469 282.768 235.853 282.389C237.237 282.009 238.644 281.82 240.073 281.82C242.819 281.82 244.951 282.467 246.469 283.762C247.987 285.057 248.746 287.077 248.746 289.823V300.104H243.857ZM238.365 300.372C236.958 300.372 235.753 300.137 234.748 299.669C233.744 299.178 232.973 298.519 232.438 297.693C231.902 296.867 231.634 295.94 231.634 294.913C231.634 293.842 231.891 292.904 232.404 292.1C232.94 291.297 233.777 290.672 234.916 290.225C236.054 289.756 237.539 289.522 239.37 289.522H244.158V292.569H239.939C238.711 292.569 237.863 292.77 237.394 293.172C236.947 293.574 236.724 294.076 236.724 294.679C236.724 295.349 236.981 295.884 237.494 296.286C238.03 296.666 238.756 296.856 239.671 296.856C240.542 296.856 241.323 296.655 242.015 296.253C242.707 295.829 243.209 295.215 243.522 294.411L244.326 296.822C243.946 297.983 243.254 298.865 242.25 299.468C241.245 300.07 239.95 300.372 238.365 300.372ZM253.474 300.104V282.087H258.698V300.104H253.474ZM256.086 279.576C255.126 279.576 254.345 279.297 253.742 278.739C253.139 278.181 252.838 277.488 252.838 276.662C252.838 275.836 253.139 275.144 253.742 274.586C254.345 274.028 255.126 273.749 256.086 273.749C257.046 273.749 257.828 274.017 258.43 274.553C259.033 275.066 259.335 275.736 259.335 276.562C259.335 277.433 259.033 278.158 258.43 278.739C257.85 279.297 257.069 279.576 256.086 279.576Z" fill="white"/>
</svg>
