<svg width="18" height="18" viewBox="0 0 18 18" fill="none" xmlns="http://www.w3.org/2000/svg">
<path d="M15.9371 1.19618C15.3333 1.05945 14.7114 1.13526 14.1607 1.41401L13.6687 2.29527L13.8824 3.17652C14.1706 2.47117 14.9359 2.05509 15.7032 2.22884C16.5592 2.42275 17.0951 3.27252 16.9012 4.12872C16.4755 6.00771 13.9863 7.41142 13.3153 10.3732C13.0913 11.362 13.8431 12.3128 14.8675 12.3128C15.5922 12.3128 16.2462 11.8126 16.4133 11.0749C16.0522 10.9931 15.7419 10.9228 15.3807 10.841C15.3319 11.0561 15.1586 11.211 14.9539 11.2462C14.5832 11.3098 14.2648 10.9747 14.348 10.6071C14.9596 7.90748 17.4249 6.60947 17.9338 4.36269C18.2563 2.93949 17.3682 1.52035 15.9371 1.19618Z" fill="#FF7037"/>
<path d="M1.09839 4.12872C0.904906 3.2746 1.44236 2.42232 2.29648 2.22884C3.07224 2.05304 3.83216 2.47614 4.11702 3.17581L4.32931 2.28513L3.83886 1.41404C3.29092 1.13663 2.66922 1.05877 2.06259 1.1962C0.639036 1.51865 -0.256762 2.93909 0.0657197 4.36264C0.573707 6.60516 3.04104 7.91199 3.65156 10.607C3.71604 10.8918 3.53692 11.1759 3.25221 11.2404C2.96513 11.3051 2.68323 11.1249 2.61893 10.841L1.58626 11.0749C1.77974 11.929 2.62807 12.4674 3.48614 12.273C4.34025 12.0796 4.87771 11.2273 4.68423 10.3731C4.01413 7.41512 1.52312 6.00368 1.09839 4.12872Z" fill="#FF9F22"/>
<path d="M8.03437 10.6533L7.11944 10.6783C6.73047 11.9085 6.82925 13.1218 7.35535 14.2942L8.17784 14.6471L9.0003 14.2942L9.35324 12.706L9.0003 11.1177C9.00023 11.1177 9.00019 11.1177 9.00012 11.1177H8.99998L8.03437 10.6533Z" fill="#FDBF00"/>
<path d="M9.96568 10.6533L10.8805 10.6783C11.2694 11.9085 11.1706 13.1218 10.6445 14.2943L9.82238 14.6472L9.00024 14.2943C9.00024 13.9099 9.00024 11.5046 9.00024 11.1178L9.96568 10.6533Z" fill="#FF9F22"/>
<path d="M3.61548 0L3.94985 2.11764L4.39724 2.71577L4.11697 3.17583L4.21025 3.76662L4.80499 7.5332C5.1303 9.59402 6.90841 11.1176 8.99976 11.1176H8.9999H9.00008L9.35302 5.55881L9.00008 0C8.70124 0 3.91435 0 3.61548 0Z" fill="#FFDA2D"/>
<path d="M13.1947 7.5332C13.2969 6.88573 13.7982 3.71103 13.8826 3.17653L13.6073 2.68457L14.0498 2.11764L14.3842 0C14.0853 0 9.29908 0 9.00024 0V11.1176C11.087 11.1175 12.8687 9.59807 13.1947 7.5332Z" fill="#FDBF00"/>
<path d="M9.00002 4.24805C8.7699 4.47813 8.57222 4.67585 8.34214 4.90589C8.01673 4.90589 7.73713 4.90589 7.41179 4.90589V5.83624C7.18167 6.06633 6.98399 6.26404 6.75391 6.49412C6.98399 6.72421 7.18167 6.92192 7.41179 7.15201V8.08236H8.34214C8.57222 8.31244 8.7699 8.51012 9.00002 8.7402L9.00016 8.74006L9.00034 8.73989L9.35328 6.49412L9.00034 4.24836L9.00016 4.24822L9.00002 4.24805Z" fill="#FF9F22"/>
<path d="M10.5882 8.08204C10.5882 7.75666 10.5882 7.47706 10.5882 7.15169C10.8182 6.92161 11.016 6.72389 11.2461 6.49381C11.016 6.26373 10.8182 6.06601 10.5882 5.83593C10.5882 5.51055 10.5882 5.23095 10.5882 4.90557C10.2627 4.90557 9.98315 4.90557 9.65781 4.90557C9.42783 4.6756 9.23022 4.47802 9.00024 4.24805V8.73957C9.23022 8.50959 9.42783 8.31202 9.65781 8.08204H10.5882Z" fill="#FF7037"/>
<path d="M3.94995 2.11719C4.00843 2.48749 4.05866 2.8057 4.11714 3.17601H9.00018L9.35312 2.6466L9.00018 2.11719C8.71991 2.11719 4.23019 2.11719 3.94995 2.11719Z" fill="#FDBF00"/>
<path d="M14.0498 2.11719C13.7696 2.11719 9.28048 2.11719 9.00024 2.11719V3.17601H13.8826C13.9411 2.8057 13.9914 2.48753 14.0498 2.11719Z" fill="#FF9F22"/>
<path d="M6.13356 14.2939C5.69832 14.7292 5.19993 15.2276 4.76465 15.6629V16.941L6.88243 17.2939L9.00025 16.941L9.35319 15.6175L9.00025 14.2939C8.65356 14.2939 6.48255 14.2939 6.13356 14.2939Z" fill="#495F66"/>
<path d="M13.2352 15.6629C12.7999 15.2276 12.3015 14.7292 11.8663 14.2939C11.5196 14.2939 9.34923 14.2939 9.00024 14.2939V16.941L11.1177 17.2939L13.2352 16.941C13.2352 16.494 13.2352 16.1099 13.2352 15.6629Z" fill="#3B4A51"/>
<path d="M3.70581 16.9414V18.0002H9.00024L9.35318 17.4708L9.00024 16.9414C8.64278 16.9414 4.0633 16.9414 3.70581 16.9414Z" fill="#3B4A51"/>
<path d="M14.294 16.9414C13.9365 16.9414 9.35774 16.9414 9.00024 16.9414V18.0002H14.294C14.294 17.6299 14.294 17.3117 14.294 16.9414Z" fill="#283646"/>
</svg>
