<svg width="18" height="18" viewBox="0 0 18 18" fill="none" xmlns="http://www.w3.org/2000/svg">
<g clip-path="url(#clip0_3105_8566)">
<path d="M6.03881 11.8583C5.64506 11.6293 5.57025 10.9827 5.29041 10.6104L2.30859 15.7468L4.75716 15.098L5.33372 17.2706L8.223 12.2818C8.04327 12.1206 7.83505 11.9943 7.60903 11.9094C7.12866 11.7798 6.459 12.1027 6.03881 11.8583Z" fill="#006DF0"/>
<path d="M7.60896 11.9094C7.12858 11.7798 6.45893 12.1027 6.03874 11.8583C5.64499 11.6293 5.57018 10.9827 5.29033 10.6104L4.98096 11.1447L5.00908 11.1729C5.29033 11.5452 5.36458 12.1918 5.75749 12.4208C6.17768 12.6652 6.84733 12.3423 7.32771 12.4719C7.54225 12.5507 7.74012 12.669 7.91102 12.8207L8.22293 12.2818C8.04319 12.1206 7.83498 11.9943 7.60896 11.9094Z" fill="#0062D8"/>
<path d="M11.9464 11.8736C11.5245 12.116 10.8571 11.7892 10.3762 11.9169C10.1497 12.0004 9.94078 12.1256 9.76025 12.2859L12.6237 17.2899L13.2115 15.12L15.6567 15.7818L12.7016 10.6299C12.4198 11.0006 12.3407 11.6469 11.9464 11.8736Z" fill="#006DF0"/>
<path d="M12.7016 10.6299C12.4203 11.0006 12.3407 11.6469 11.9464 11.8736C11.5245 12.116 10.8571 11.7892 10.3762 11.9169C10.1497 12.0004 9.94078 12.1256 9.76025 12.2859L10.0696 12.827C10.242 12.6753 10.4413 12.5574 10.6572 12.4794C11.1381 12.3523 11.8061 12.6785 12.2274 12.4361C12.6211 12.2094 12.7007 11.5642 12.9825 11.1924L13.0059 11.1606L12.7016 10.6299Z" fill="#0062D8"/>
<path d="M14.1134 9.71719C13.8659 10.1447 13.1234 10.1925 12.7746 10.5384C12.7493 10.5666 12.7268 10.5975 12.7015 10.6284C12.4202 10.9997 12.3415 11.6466 11.9477 11.8744C11.5259 12.1163 10.8565 11.79 10.3755 11.9166C10.1495 12.0008 9.94073 12.1256 9.75961 12.285C9.54993 12.4876 9.28084 12.6177 8.9918 12.6562C8.70234 12.6172 8.43313 12.4861 8.22398 12.2822C8.04343 12.1207 7.83462 11.9939 7.60805 11.9081C7.12992 11.7788 6.46055 12.1022 6.03867 11.8575C5.64492 11.6297 5.5718 10.9828 5.29055 10.6116C5.26934 10.5783 5.24484 10.5472 5.21742 10.5188C4.87148 10.1728 4.12898 10.1166 3.88148 9.68906C3.63961 9.27 3.96586 8.60063 3.8393 8.11969C3.71555 7.65563 3.09961 7.23938 3.09961 6.73594C3.09961 6.2325 3.72117 5.81625 3.84773 5.35219C3.97711 4.87125 3.65367 4.20187 3.89836 3.78281C4.14586 3.35531 4.89117 3.3075 5.23711 2.96156C5.58305 2.61562 5.6393 1.87313 6.0668 1.62563C6.48586 1.38375 7.15523 1.71 7.63617 1.58344C8.10023 1.45969 8.5193 0.84375 9.02273 0.84375C9.52617 0.84375 9.93961 1.46531 10.4037 1.59187C10.8846 1.72125 11.554 1.39781 11.973 1.6425C12.4005 1.89 12.4484 2.63531 12.7943 2.98125C13.1402 3.32719 13.8827 3.38344 14.1302 3.81094C14.3721 4.23 14.0459 4.89937 14.1724 5.38031C14.2962 5.84437 14.9149 6.26062 14.9121 6.76406C14.9093 7.2675 14.2905 7.68375 14.1668 8.14781C14.0346 8.62875 14.358 9.29812 14.1134 9.71719Z" fill="#FFCD00"/>
<path d="M9 10.125C10.864 10.125 12.375 8.61396 12.375 6.75C12.375 4.88604 10.864 3.375 9 3.375C7.13604 3.375 5.625 4.88604 5.625 6.75C5.625 8.61396 7.13604 10.125 9 10.125Z" fill="#D80027"/>
<path d="M9 3.375C8.90494 3.375 8.81184 3.38147 8.71875 3.38906C9.56205 3.45898 10.3483 3.84336 10.9214 4.46595C11.4945 5.08853 11.8126 5.9038 11.8126 6.75C11.8126 7.5962 11.4945 8.41147 10.9214 9.03406C10.3483 9.65664 9.56205 10.041 8.71875 10.1109C8.81184 10.1185 8.90494 10.125 9 10.125C9.89511 10.125 10.7536 9.76942 11.3865 9.13649C12.0194 8.50355 12.375 7.64511 12.375 6.75C12.375 5.85489 12.0194 4.99645 11.3865 4.36351C10.7536 3.73058 9.89511 3.375 9 3.375Z" fill="#C20023"/>
<path d="M15.7143 3.51337L15.75 3.65625L15.7857 3.51337C15.8599 3.21671 16.0133 2.94579 16.2296 2.72956C16.4458 2.51332 16.7167 2.35991 17.0134 2.28572L17.1562 2.25L17.0134 2.21428C16.7167 2.14006 16.4457 1.98661 16.2295 1.77033C16.0133 1.55404 15.8599 1.28306 15.7857 0.986344L15.75 0.84375L15.7143 0.986344C15.6401 1.28306 15.4867 1.55404 15.2705 1.77033C15.0543 1.98661 14.7833 2.14006 14.4866 2.21428L14.3438 2.25L14.4866 2.28572C14.7833 2.35991 15.0542 2.51332 15.2704 2.72956C15.4867 2.94579 15.6401 3.21671 15.7143 3.51337Z" fill="#FF9811"/>
<path d="M2.21428 3.51337L2.25 3.65625L2.28572 3.51337C2.35991 3.21671 2.51332 2.94579 2.72956 2.72956C2.94579 2.51332 3.21671 2.35991 3.51337 2.28572L3.65625 2.25L3.51337 2.21428C3.21668 2.14006 2.94573 1.98661 2.72949 1.77033C2.51326 1.55404 2.35987 1.28306 2.28572 0.986344L2.25 0.84375L2.21428 0.986344C2.14013 1.28306 1.98674 1.55404 1.77051 1.77033C1.55427 1.98661 1.28332 2.14006 0.986625 2.21428L0.84375 2.25L0.986625 2.28572C1.28329 2.35991 1.55421 2.51332 1.77044 2.72956C1.98668 2.94579 2.14009 3.21671 2.21428 3.51337Z" fill="#FF9811"/>
<path d="M15.7857 9.70509L15.75 9.5625L15.7143 9.70509C15.6401 10.0018 15.4867 10.2728 15.2705 10.4891C15.0543 10.7054 14.7833 10.8588 14.4866 10.933L14.3438 10.9688L14.4866 11.0045C14.7833 11.0787 15.0542 11.2321 15.2704 11.4483C15.4867 11.6645 15.6401 11.9355 15.7143 12.2321L15.75 12.375L15.7857 12.2321C15.8599 11.9355 16.0133 11.6645 16.2296 11.4483C16.4458 11.2321 16.7167 11.0787 17.0134 11.0045L17.1562 10.9688L17.0134 10.933C16.7167 10.8588 16.4457 10.7054 16.2295 10.4891C16.0133 10.2728 15.8599 10.0018 15.7857 9.70509Z" fill="#FF5023"/>
<path d="M0.84375 10.9688L0.986625 11.0045C1.28329 11.0787 1.55421 11.2321 1.77044 11.4483C1.98668 11.6645 2.14009 11.9355 2.21428 12.2321L2.25 12.375L2.28572 12.2321C2.35991 11.9355 2.51332 11.6645 2.72956 11.4483C2.94579 11.2321 3.21671 11.0787 3.51337 11.0045L3.65625 10.9688L3.51337 10.933C3.21668 10.8588 2.94573 10.7054 2.72949 10.4891C2.51326 10.2728 2.35987 10.0018 2.28572 9.70509L2.25 9.5625L2.21428 9.70509C2.14013 10.0018 1.98674 10.2728 1.77051 10.4891C1.55427 10.7054 1.28332 10.8588 0.986625 10.933L0.84375 10.9688Z" fill="#FF5023"/>
<path d="M9 5.90625C9.34341 5.90625 9.5625 6.07275 9.5625 6.1875C9.5625 6.26209 9.59213 6.33363 9.64488 6.38637C9.69762 6.43912 9.76916 6.46875 9.84375 6.46875C9.91834 6.46875 9.98988 6.43912 10.0426 6.38637C10.0954 6.33363 10.125 6.26209 10.125 6.1875C10.125 5.78784 9.77091 5.46441 9.28125 5.37188V5.0625C9.28125 4.98791 9.25162 4.91637 9.19887 4.86363C9.14613 4.81088 9.07459 4.78125 9 4.78125C8.92541 4.78125 8.85387 4.81088 8.80113 4.86363C8.74838 4.91637 8.71875 4.98791 8.71875 5.0625V5.37188C8.22909 5.46384 7.875 5.78728 7.875 6.1875C7.875 6.66056 8.36916 7.03125 9 7.03125C9.34341 7.03125 9.5625 7.19775 9.5625 7.3125C9.5625 7.42725 9.34341 7.59375 9 7.59375C8.65659 7.59375 8.4375 7.42725 8.4375 7.3125C8.4375 7.23791 8.40787 7.16637 8.35512 7.11363C8.30238 7.06088 8.23084 7.03125 8.15625 7.03125C8.08166 7.03125 8.01012 7.06088 7.95738 7.11363C7.90463 7.16637 7.875 7.23791 7.875 7.3125C7.875 7.71216 8.22909 8.03559 8.71875 8.12812V8.4375C8.71875 8.51209 8.74838 8.58363 8.80113 8.63637C8.85387 8.68912 8.92541 8.71875 9 8.71875C9.07459 8.71875 9.14613 8.68912 9.19887 8.63637C9.25162 8.58363 9.28125 8.51209 9.28125 8.4375V8.12812C9.77091 8.03616 10.125 7.71272 10.125 7.3125C10.125 6.83944 9.63084 6.46875 9 6.46875C8.65659 6.46875 8.4375 6.30225 8.4375 6.1875C8.4375 6.07275 8.65659 5.90625 9 5.90625Z" fill="#F1F2F2"/>
<path d="M16.3125 5.90625H16.875V6.46875H16.3125V5.90625Z" fill="#FF6243"/>
<path d="M16.875 6.46875H17.4375V7.03125H16.875V6.46875Z" fill="#FF6243"/>
<path d="M15.75 6.46875H16.3125V7.03125H15.75V6.46875Z" fill="#FF6243"/>
<path d="M16.3125 7.03125H16.875V7.59375H16.3125V7.03125Z" fill="#FF6243"/>
<path d="M1.125 5.90625H1.6875V6.46875H1.125V5.90625Z" fill="#FF6243"/>
<path d="M0.5625 6.46875H1.125V7.03125H0.5625V6.46875Z" fill="#FF6243"/>
<path d="M1.6875 6.46875H2.25V7.03125H1.6875V6.46875Z" fill="#FF6243"/>
<path d="M1.125 7.03125H1.6875V7.59375H1.125V7.03125Z" fill="#FF6243"/>
</g>
<defs>
<clipPath id="clip0_3105_8566">
<rect width="18" height="18" fill="white"/>
</clipPath>
</defs>
</svg>
